<svg width="46" height="46" viewBox="0 0 46 46" fill="none" xmlns="http://www.w3.org/2000/svg">
<path d="M23.0949 0C35.6289 0 45.7932 10.1643 45.7932 22.6983C45.7932 35.2323 35.6289 45.3966 23.0949 45.3966C10.5609 45.3966 0.396618 35.2323 0.396618 22.6983C0.396618 10.1643 10.5609 0 23.0949 0ZM10.1397 28.0719C10.2028 29.4594 10.4234 30.4066 10.7455 31.2358C11.4226 32.9866 12.8066 34.3706 14.5574 35.0477C15.3862 35.3698 16.3338 35.5901 17.721 35.6535C19.1109 35.7168 19.5549 35.7321 23.0946 35.7321C26.6346 35.7321 27.0783 35.7168 28.4685 35.6535C29.8556 35.5901 30.8032 35.3698 31.6321 35.0477C32.5021 34.7204 33.2897 34.2075 33.9408 33.5442C34.6037 32.8934 35.1167 32.1055 35.444 31.2358C35.7661 30.407 35.9867 29.4594 36.0497 28.0722C36.1138 26.682 36.1287 26.238 36.1287 22.6983C36.1287 19.1586 36.1138 18.7146 36.0501 17.3247C35.987 15.9372 35.7668 14.99 35.4447 14.1608C35.1174 13.2911 34.6041 12.5032 33.9408 11.8524C33.29 11.1891 32.5021 10.6762 31.6324 10.3489C30.8032 10.0268 29.856 9.80651 28.4685 9.74313C27.0786 9.67975 26.6346 9.66451 23.0949 9.66451C19.5552 9.66451 19.1112 9.67975 17.7213 9.74348C16.3338 9.80651 15.3866 10.0268 14.5574 10.3485C13.6877 10.6758 12.8998 11.1891 12.2487 11.8524C11.5858 12.5035 11.0725 13.2911 10.7455 14.1608C10.4231 14.99 10.2028 15.9372 10.1394 17.3247C10.076 18.7146 10.0611 19.1586 10.0611 22.6983C10.0611 26.238 10.076 26.682 10.1397 28.0719Z" fill="#CACACA"/>
</svg>
